<svg width="19" height="19" viewBox="0 0 19 19" fill="none" xmlns="http://www.w3.org/2000/svg">
<path d="M9.0078 0C6.8105 0 5.00781 1.80272 5.00781 4C5.00781 6.19733 6.81053 8 9.0078 8C11.2051 8 13.0078 6.19733 13.0078 4C13.0078 1.80272 11.2051 0 9.0078 0V0ZM9.01575 8.99219C4.05705 8.99219 0.00012207 13.0492 0.00012207 18.0078C0.00425891 18.271 0.111982 18.5219 0.299925 18.7062C0.487868 18.8905 0.740879 18.9932 1.00409 18.9922H17.0078C17.271 18.9932 17.524 18.8905 17.7119 18.7062C17.8999 18.5219 18.0076 18.271 18.0117 18.0078C18.0117 13.0492 13.9743 8.99219 9.01562 8.99219H9.01575Z" fill="white"/>
</svg>
